<svg 
 xmlns="http://www.w3.org/2000/svg"
 xmlns:xlink="http://www.w3.org/1999/xlink"
 width="849px" height="154px">
<path fill-rule="evenodd"  fill="rgb(0, 0, 0)"
 d="M837.865,104.283 L837.865,62.31 C837.865,48.600 830.730,40.205 817.858,40.205 C805.406,40.205 796.173,49.299 796.173,62.870 L796.173,104.283 L785.400,104.283 L785.400,31.951 L796.173,31.951 L796.173,44.542 C801.69,36.708 808.484,30.412 820.936,30.412 C838.285,30.412 848.638,42.164 848.638,59.373 L848.638,104.283 L837.865,104.283 ZM748.888,4.249 L761.200,4.249 L761.200,16.141 L748.888,16.141 L748.888,4.249 ZM688.186,104.983 L661.323,25.515 L634.321,104.983 L625.87,104.983 L590.110,6.348 L602.142,6.348 L630.124,87.914 L656.986,6.68 L666.80,6.68 L692.943,87.914 L720.924,6.348 L732.536,6.348 L697.559,104.983 L688.186,104.983 ZM592.350,147.679 L589.422,147.679 L589.422,132.584 L581.893,143.496 L581.779,143.496 L574.251,132.622 L574.251,147.679 L571.361,147.679 L571.361,128.21 L574.441,128.21 L581.893,139.48 L589.308,128.21 L592.350,128.21 L592.350,147.679 ZM567.594,104.283 L541.711,70.565 L527.21,85.396 L527.21,104.283 L516.248,104.283 L516.248,2.150 L527.21,2.150 L527.21,72.664 L566.55,31.951 L579.487,31.951 L549.127,63.10 L580.466,104.283 L567.594,104.283 ZM505.107,140.378 L499.23,140.378 L493.586,147.679 L490.87,147.679 L495.829,140.112 C492.673,139.390 490.810,137.299 490.810,134.257 L490.810,134.219 C490.810,130.454 493.814,128.21 498.491,128.21 L507.997,128.21 L507.997,147.679 L505.107,147.679 L505.107,140.378 ZM505.107,130.454 L498.529,130.454 C495.601,130.454 493.738,131.975 493.738,134.219 L493.738,134.257 C493.738,136.538 495.487,138.59 498.529,138.21 L505.107,138.21 L505.107,130.454 ZM470.506,105.682 C460.13,105.682 448.821,101.625 440.566,95.49 L446.23,87.354 C453.857,93.370 462.532,96.588 471.66,96.588 C479.880,96.588 486.36,92.251 486.36,85.116 L486.36,84.836 C486.36,77.701 477.502,74.763 467.988,72.104 C456.796,68.746 444.64,65.109 444.64,51.678 L444.64,51.398 C444.64,38.946 454.417,30.692 468.688,30.692 C477.642,30.692 487.295,33.770 494.711,38.666 L489.814,46.781 C483.98,42.444 475.543,39.786 468.408,39.786 C459.874,39.786 454.417,44.263 454.417,50.279 L454.417,50.558 C454.417,57.414 463.371,60.72 473.25,63.10 C484.217,66.368 496.249,70.705 496.249,83.717 L496.249,83.996 C496.249,97.707 484.917,105.682 470.506,105.682 ZM432.658,147.679 L423.836,147.679 L423.836,128.21 L426.764,128.21 L426.764,134.789 L432.772,134.789 C437.601,134.789 440.490,137.222 440.490,141.177 L440.490,141.253 C440.490,145.93 437.677,147.679 432.658,147.679 ZM437.525,141.177 C437.525,138.857 435.966,137.222 432.658,137.260 L426.764,137.260 L426.764,145.169 L432.620,145.169 C435.966,145.169 437.525,143.687 437.525,141.215 L437.525,141.177 ZM389.231,105.962 C367.545,105.962 351.735,88.893 351.735,68.467 L351.735,68.187 C351.735,47.620 367.545,30.412 389.510,30.412 C411.336,30.412 427.146,47.481 427.146,67.907 L427.146,68.187 C427.146,88.753 411.56,105.962 389.231,105.962 ZM416.93,68.187 C416.93,52.657 404.480,39.926 389.231,39.926 C373.561,39.926 362.788,52.657 362.788,67.907 L362.788,68.187 C362.788,83.717 374.260,96.308 389.510,96.308 C405.180,96.308 416.93,83.577 416.93,68.467 L416.93,68.187 ZM352.485,147.679 L349.595,147.679 L349.595,132.393 L337.542,147.679 L334.804,147.679 L334.804,128.21 L337.732,128.21 L337.732,143.268 L349.671,128.21 L352.485,128.21 L352.485,147.679 ZM319.291,24.955 L283.614,77.421 L283.55,77.421 L247.378,25.95 L247.378,104.283 L236.605,104.283 L236.605,6.348 L247.798,6.348 L283.474,59.792 L319.151,6.348 L330.343,6.348 L330.343,104.283 L319.291,104.283 L319.291,24.955 ZM249.800,120.606 C254.629,120.606 257.557,122.279 260.181,124.827 L258.128,127.32 C255.846,124.903 253.413,123.382 249.762,123.382 C243.869,123.382 239.458,128.173 239.458,134.295 L239.458,134.371 C239.458,140.531 243.869,145.360 249.762,145.360 C253.413,145.360 255.808,143.953 258.356,141.519 L260.333,143.458 C257.595,146.272 254.477,148.135 249.686,148.135 C242.6,148.135 236.340,142.90 236.340,134.447 L236.340,134.371 C236.340,126.842 242.6,120.606 249.800,120.606 ZM99.999,11.999 L7.0,67.0 L0.0,67.0 L0.0,57.0 L99.999,0.0 L200.0,57.0 L200.0,67.0 L192.999,67.0 L99.999,11.999 ZM28.999,86.0 C28.999,99.0 28.999,112.0 28.999,125.0 C29.142,129.367 30.371,132.927 32.999,135.0 C35.652,137.92 38.900,137.15 39.999,137.0 C45.904,136.915 79.922,137.47 99.999,137.0 C120.77,137.47 154.95,136.915 159.999,137.0 C161.99,137.15 164.347,137.92 166.999,135.0 C169.628,132.927 170.857,129.367 170.999,125.0 C170.999,112.0 170.999,99.0 170.999,86.0 C174.333,86.0 177.666,86.0 180.999,86.0 C181.333,99.333 181.666,112.666 181.999,126.0 C181.855,133.362 179.694,139.828 174.999,144.0 C169.556,148.837 162.635,148.945 159.0,149.0 C138.942,149.299 119.517,149.321 99.999,149.0 C80.482,149.321 61.57,149.299 40.999,149.0 C37.364,148.945 30.443,148.837 24.999,144.0 C20.305,139.828 18.144,133.362 17.999,126.0 C18.333,112.666 18.666,99.333 18.999,86.0 C22.333,86.0 25.666,86.0 28.999,86.0 ZM280.643,130.644 L272.734,130.644 L272.734,147.679 L269.807,147.679 L269.807,130.644 L261.936,130.644 L261.936,128.21 L280.643,128.21 L280.643,130.644 ZM287.910,131.975 C289.545,129.656 291.789,127.602 295.439,127.602 C300.154,127.602 304.831,131.329 304.831,137.793 L304.831,137.869 C304.831,144.257 300.192,148.97 295.439,148.97 C291.789,148.97 289.431,146.158 287.910,143.915 L287.910,153.763 L284.982,153.763 L284.982,128.21 L287.910,128.21 L287.910,131.975 ZM287.796,137.869 C287.796,142.432 291.256,145.474 294.907,145.474 C298.709,145.474 301.827,142.660 301.827,137.907 L301.827,137.831 C301.827,133.154 298.671,130.226 294.907,130.226 C291.256,130.226 287.796,133.344 287.796,137.793 L287.796,137.869 ZM319.285,127.602 C325.217,127.602 329.513,132.241 329.513,137.793 L329.513,137.869 C329.513,143.458 325.141,148.135 319.209,148.135 C313.315,148.135 309.19,143.496 309.19,137.945 L309.19,137.869 C309.19,132.279 313.315,127.602 319.285,127.602 ZM312.23,137.869 C312.23,142.90 315.140,145.512 319.285,145.512 C323.544,145.512 326.510,142.51 326.510,137.945 L326.510,137.869 C326.510,133.648 323.354,130.188 319.209,130.188 C314.950,130.188 312.23,133.648 312.23,137.793 L312.23,137.869 ZM375.608,130.644 L367.699,130.644 L367.699,147.679 L364.772,147.679 L364.772,130.644 L356.901,130.644 L356.901,128.21 L375.608,128.21 L375.608,130.644 ZM386.944,127.602 C392.761,127.602 396.107,132.241 396.107,137.983 C396.107,138.401 396.107,138.591 396.69,138.934 L380.480,138.934 C380.898,143.192 383.902,145.588 387.400,145.588 C390.138,145.588 391.963,144.485 393.598,142.812 L395.423,144.447 C393.446,146.690 391.88,148.135 387.324,148.135 C381.962,148.135 377.514,143.991 377.514,137.907 L377.514,137.831 C377.514,132.165 381.468,127.602 386.944,127.602 ZM393.141,136.766 C392.837,133.230 390.822,130.74 386.868,130.74 C383.407,130.74 380.898,132.964 380.480,136.766 L393.141,136.766 ZM410.295,127.869 L419.230,147.679 L415.960,147.679 L408.926,131.481 L401.853,147.679 L398.697,147.679 L407.595,127.869 L410.295,127.869 ZM448.214,136.424 L459.963,136.424 L459.963,128.21 L462.853,128.21 L462.853,147.679 L459.963,147.679 L459.963,139.86 L448.214,139.86 L448.214,147.679 L445.286,147.679 L445.286,128.21 L448.214,128.21 L448.214,136.424 ZM476.356,135.549 C478.904,135.549 480.615,135.892 482.402,136.386 L482.402,135.702 C482.402,132.165 480.235,130.340 476.546,130.340 C474.227,130.340 472.402,130.910 470.577,131.785 L469.702,129.390 C471.870,128.363 473.961,127.755 476.851,127.755 C479.626,127.755 481.756,128.477 483.201,129.922 C484.531,131.253 485.216,133.192 485.216,135.663 L485.216,147.679 L482.402,147.679 L482.402,144.713 C481.33,146.500 478.790,148.97 475.292,148.97 C471.641,148.97 467.953,146.44 467.953,141.975 L467.953,141.899 C467.953,137.793 471.375,135.549 476.356,135.549 ZM470.919,141.861 C470.919,144.333 473.238,145.778 475.862,145.778 C479.512,145.778 482.440,143.572 482.440,140.454 L482.440,138.553 C480.957,138.135 479.94,137.717 476.661,137.717 C472.972,137.717 470.919,139.314 470.919,141.785 L470.919,141.861 ZM528.917,136.462 L532.491,136.462 L539.830,128.21 L543.480,128.21 L534.849,137.641 L543.708,147.679 L540.58,147.679 L532.567,139.48 L528.917,139.48 L528.917,147.679 L525.989,147.679 L525.989,128.21 L528.917,128.21 L528.917,136.462 ZM555.842,127.602 C561.774,127.602 566.71,132.241 566.71,137.793 L566.71,137.869 C566.71,143.458 561.698,148.135 555.766,148.135 C549.872,148.135 545.576,143.496 545.576,137.945 L545.576,137.869 C545.576,132.279 549.872,127.602 555.842,127.602 ZM548.580,137.869 C548.580,142.90 551.697,145.512 555.842,145.512 C560.101,145.512 563.67,142.51 563.67,137.945 L563.67,137.869 C563.67,133.648 559.911,130.188 555.766,130.188 C551.507,130.188 548.580,133.648 548.580,137.793 L548.580,137.869 ZM616.463,147.679 L613.535,147.679 L613.535,130.682 L601.862,130.682 L601.862,147.679 L598.934,147.679 L598.934,128.21 L616.463,128.21 L616.463,147.679 ZM629.928,135.549 C632.476,135.549 634.187,135.892 635.974,136.386 L635.974,135.702 C635.974,132.165 633.807,130.340 630.118,130.340 C627.799,130.340 625.974,130.910 624.149,131.785 L623.274,129.390 C625.441,128.363 627.533,127.755 630.423,127.755 C633.198,127.755 635.328,128.477 636.773,129.922 C638.103,131.253 638.788,133.192 638.788,135.663 L638.788,147.679 L635.974,147.679 L635.974,144.713 C634.605,146.500 632.362,148.97 628.864,148.97 C625.213,148.97 621.525,146.44 621.525,141.975 L621.525,141.899 C621.525,137.793 624.947,135.549 629.928,135.549 ZM624.491,141.861 C624.491,144.333 626.810,145.778 629.434,145.778 C633.84,145.778 636.12,143.572 636.12,140.454 L636.12,138.553 C634.529,138.135 632.666,137.717 630.232,137.717 C626.544,137.717 624.491,139.314 624.491,141.785 L624.491,141.861 ZM647.956,136.424 L659.705,136.424 L659.705,128.21 L662.595,128.21 L662.595,147.679 L659.705,147.679 L659.705,139.86 L647.956,139.86 L647.956,147.679 L645.28,147.679 L645.28,128.21 L647.956,128.21 L647.956,136.424 ZM672.106,143.268 L684.46,128.21 L686.859,128.21 L686.859,147.679 L683.970,147.679 L683.970,132.393 L671.916,147.679 L669.178,147.679 L669.178,128.21 L672.106,128.21 L672.106,143.268 ZM692.796,134.257 L692.796,134.219 C692.796,130.454 695.800,128.21 700.477,128.21 L709.983,128.21 L709.983,147.679 L707.93,147.679 L707.93,140.378 L701.9,140.378 L695.572,147.679 L692.74,147.679 L697.815,140.112 C694.659,139.390 692.796,137.299 692.796,134.257 ZM700.515,138.21 L707.93,138.21 L707.93,130.454 L700.515,130.454 C697.587,130.454 695.724,131.975 695.724,134.219 L695.724,134.257 C695.724,136.538 697.473,138.59 700.515,138.21 ZM760.360,104.283 L749.588,104.283 L749.588,31.951 L760.360,31.951 L760.360,104.283 Z"/>
</svg>